<?xml version="1.0" encoding="UTF-8" standalone="no"?>
<svg
   xmlns:dc="http://purl.org/dc/elements/1.1/"
   xmlns:cc="http://creativecommons.org/ns#"
   xmlns:rdf="http://www.w3.org/1999/02/22-rdf-syntax-ns#"
   xmlns:svg="http://www.w3.org/2000/svg"
   xmlns="http://www.w3.org/2000/svg"
   xmlns:sodipodi="http://sodipodi.sourceforge.net/DTD/sodipodi-0.dtd"
   xmlns:inkscape="http://www.inkscape.org/namespaces/inkscape"
   id="svg6"
   viewBox="0 0 1024 1024"
   height="1024"
   width="1024"
   version="1.1"
   sodipodi:docname="nightmare.svg"
   inkscape:version="0.92.4 (5da689c313, 2019-01-14)">
  <sodipodi:namedview
     pagecolor="#ffffff"
     bordercolor="#666666"
     borderopacity="1"
     objecttolerance="10"
     gridtolerance="10"
     guidetolerance="10"
     inkscape:pageopacity="0"
     inkscape:pageshadow="2"
     inkscape:window-width="1680"
     inkscape:window-height="987"
     id="namedview7"
     showgrid="false"
     showguides="false"
     inkscape:zoom="0.65186406"
     inkscape:cx="689.5847"
     inkscape:cy="570.72497"
     inkscape:window-x="-8"
     inkscape:window-y="-8"
     inkscape:window-maximized="1"
     inkscape:current-layer="svg6"
     fit-margin-top="0"
     fit-margin-left="0"
     fit-margin-right="0"
     fit-margin-bottom="0" />
  <metadata
     id="metadata12">
    <rdf:RDF>
      <cc:Work
         rdf:about="">
        <dc:format>image/svg+xml</dc:format>
        <dc:type
           rdf:resource="http://purl.org/dc/dcmitype/StillImage" />
        <dc:title>nightmare</dc:title>
      </cc:Work>
    </rdf:RDF>
  </metadata>
  <defs
     id="defs10" />
  <title
     id="title2">nightmare</title>
  <path
     id="path4"
     style="fill:#1564be;fill-opacity:1;stroke-width:22.86371231"
     d="m 561.61969,153.6 -0.0232,0.0219 c 1.07354,1.25437 2.82473,1.41218 4.13164,2.35293 24.20129,15.25392 47.30561,32.11978 68.77634,50.7336 20.81728,18.23304 40.37353,38.1459 55.2863,61.21719 2.6372,4.32305 6.23192,8.78107 5.48516,14.1121 -0.25676,3.80789 -3.54824,7.66043 -7.7957,7.19005 -5.57773,-0.53759 -8.77397,-5.44363 -12.60137,-8.73633 -12.3923,-11.08765 -27.28221,-19.41984 -42.96521,-25.42285 21.42411,13.64117 40.39732,32.74768 48.47224,56.60293 -23.92119,-28.11112 -53.63077,-51.89854 -87.3072,-68.54122 -36.2902,-17.98664 -78.22692,-26.09521 -118.81128,-20.3834 13.06915,1.59037 26.11396,3.96427 38.62303,8.01856 14.98278,4.92783 29.89624,11.89437 40.58495,23.40762 -22.14756,-11.04285 -46.25573,-18.45705 -71.0404,-21.43614 -35.87013,-4.45747 -72.55773,-0.26884 -107.00425,9.99004 -30.82918,9.1837 -60.04708,23.13866 -86.69879,40.5877 -43.4549,28.55912 -80.53909,66.57049 -105.37046,111.27949 -16.19641,29.25348 -26.83897,61.57515 -29.24277,94.70371 -1.58696,22.39931 0.42009,45.15708 6.67461,66.81719 0.91018,-10.12449 2.26414,-20.20341 4.24785,-30.1711 8.42493,-42.84987 25.64829,-84.49018 52.7201,-119.67949 17.85337,-23.25047 40.11719,-43.3877 65.532,-58.86562 3.64069,-2.08314 7.46827,-5.03996 11.97246,-4.43516 3.75737,1.61275 1.89012,6.67551 -0.28028,8.91543 -25.46151,23.78807 -44.62089,53.3105 -57.97009,84.80391 -29.45224,69.86342 -32.08932,150.20872 -5.36758,221.23691 10.57199,28.13353 25.81049,54.65494 44.99413,78.24141 32.60287,40.29633 76.47807,71.38613 124.46049,92.88945 48.82256,21.88409 101.66036,34.83099 154.9638,41.34919 -46.9556,-8.6909 -92.30121,-25.2883 -133.7724,-48.09079 -49.6394,-27.37195 -93.35095,-65.65246 -122.8732,-112.95977 -17.83005,-28.29034 -30.47935,-59.49338 -37.99412,-91.72598 -2.31042,-10.55007 -4.80807,-21.14427 -5.55488,-31.91835 0.58344,3.47189 1.63358,6.8311 2.68379,10.19101 9.38177,29.88066 22.03069,58.9107 38.76385,85.72266 13.79263,21.79453 30.38643,42.44617 51.57713,58.08086 -10.80539,-13.95475 -21.65688,-28.1559 -28.84491,-44.21621 -1.89037,-4.50226 -4.0146,-9.29586 -3.22109,-14.24609 0.2567,-1.43356 1.19,-3.38124 3.05702,-3.02286 3.15059,1.18717 4.66694,4.39003 6.16055,7.07793 7.44475,15.07474 18.57719,28.24486 31.29627,39.51172 18.55352,16.39628 40.39793,29.07412 63.36228,38.90742 32.22945,13.70838 66.88677,21.8852 101.96344,24.95391 60.30473,5.28623 122.31319,-5.24236 176.27004,-31.85274 42.40471,-20.71935 79.30054,-51.13654 108.42612,-87.13222 25.88153,-31.8742 45.9529,-67.84874 61.21577,-105.43477 0.63007,-1.79194 2.00655,-3.42599 1.79655,-5.41953 -1.09704,1.74714 -1.21275,3.82993 -2.21627,5.62188 -18.22682,38.81798 -42.38213,75.12726 -71.57768,107.18066 -32.57952,35.68208 -72.46408,65.83094 -118.0894,84.60156 -28.72875,11.89405 -59.5103,19.15237 -90.68961,21.57149 -28.37866,2.12792 -57.06099,1.1416 -85.08962,-3.76387 -30.2224,-5.26381 -59.62869,-15.25409 -86.28043,-30.01523 -46.16207,-25.4904 -84.03901,-65.24912 -104.55288,-112.55645 -6.06783,-14.40275 -10.89836,-29.54475 -12.11192,-45.08985 3.99074,9.92288 8.68092,19.57721 13.86192,28.9625 24.31792,43.92505 59.2317,82.98919 103.03667,109.93555 28.16866,17.40424 59.88485,29.41041 92.76773,35.39102 30.43243,5.42063 61.84479,6.698 92.53395,2.48691 31.66939,-4.41265 62.38202,-14.44763 90.7607,-28.55918 42.14801,-21.03293 79.72248,-50.68916 108.98805,-86.64004 18.29682,-22.66809 33.4663,-48.06895 41.75115,-75.75449 0.91021,-3.3823 2.17055,-6.74216 2.31055,-10.28125 -3.89739,12.74521 -10.10602,24.72842 -16.50059,36.46563 -13.4192,23.90007 -30.22238,45.98631 -49.40603,65.92167 -15.82298,16.55308 -34.00336,30.91004 -53.35037,43.49844 -25.25142,16.32908 -52.78966,29.6125 -81.89176,38.34824 -26.86179,8.08614 -55.1944,11.98276 -83.31637,10.25801 -33.44303,-1.6575 -66.81582,-7.99646 -97.85504,-20.27128 -27.5152,-10.84125 -53.04721,-26.36357 -74.65797,-45.98535 -43.4549,-39.17639 -70.12934,-94.8168 -72.92986,-151.95742 -2.03039,-39.01957 7.16444,-79.00206 28.77519,-112.33223 5.04097,-8.08614 12.08887,-15.32061 14.37597,-24.72833 0.86348,-3.56149 0.95664,-8.10834 -2.28731,-10.63944 -3.594,-2.57591 -8.47145,-1.63582 -12.39218,-0.38146 -11.29547,3.94229 -20.21073,12.02819 -28.98573,19.57676 11.38882,-13.23798 25.99906,-23.80926 41.86873,-31.64902 22.07752,-10.86366 47.63179,-15.27727 72.25309,-12.05176 2.63718,-1.92636 4.97143,-4.23263 7.56192,-6.22617 9.2651,-7.39178 20.04745,-13.37334 31.97303,-15.61328 -5.34434,-1.63515 -10.94617,-2.41871 -16.50058,-3.11308 -26.02159,-2.91191 -52.69649,0.6048 -77.15446,9.51972 -22.89433,8.26536 -43.75823,21.27927 -61.77497,37.09316 -1.21358,1.18717 -2.28744,2.57627 -3.92109,3.31543 19.9538,-20.89852 44.52881,-38.03482 72.02067,-48.5625 21.12069,-8.04134 44.34232,-11.4908 66.95661,-8.64609 20.7706,2.48633 40.6534,10.10224 58.32009,20.78672 8.23823,4.77103 15.70656,10.61775 23.31465,16.21758 -16.26639,-26.25198 -44.13069,-45.82951 -75.35662,-52.07891 -18.50685,-3.80789 -37.80795,-3.02364 -56.22146,0.80665 -1.49361,0.40317 -2.89321,1.27735 -4.50351,0.85175 23.59447,-6.54059 48.70498,-7.97415 72.99958,-4.61425 30.01235,4.09906 58.55549,16.75427 81.51989,35.70409 13.32581,10.93085 24.97081,24.21386 31.85545,39.82618 6.67462,15.00753 8.63442,32.187 4.13027,48.0457 -1.40026,4.47984 -2.94017,9.40886 -7.09433,12.27597 -3.03393,2.41913 -7.88791,3.24773 -11.08515,0.64942 -5.11098,-4.14387 -10.17584,-8.35546 -15.54355,-12.18575 -24.01454,-17.33705 -51.87925,-31.51522 -82.265,-34.13593 12.27564,3.89747 23.80493,9.76516 34.28358,16.97774 21.82076,14.94033 39.58005,34.78715 53.93278,56.38008 2.42718,3.49428 4.34081,7.4133 7.67813,10.258 4.7142,4.21107 11.36586,7.10098 17.92382,5.82422 5.90442,-1.14238 10.3612,-5.64431 13.20839,-10.52735 3.03393,-5.19663 6.62905,-10.61809 12.41679,-13.28359 2.07712,-1.03038 5.34448,-1.00787 6.30137,1.45606 1.2602,3.65109 -0.65466,7.43636 -2.38164,10.63945 -5.64774,9.16134 -10.96822,18.56887 -17.80625,26.99101 -8.58829,10.77407 -19.65056,20.13702 -32.99978,24.99766 -13.13913,4.92786 -27.79507,4.9731 -41.44764,2.08359 1.91366,1.79195 4.4106,2.86771 6.74433,4.12207 14.3994,7.14538 30.78248,11.26576 47.07225,10.0338 12.69567,-0.94078 24.99491,-5.64395 35.00681,-13.17013 0.88682,-0.73916 1.44656,-1.81449 2.75352,-2.03847 1.5636,-1.36637 2.94107,-2.95637 4.55137,-4.27793 -0.14,0.85116 -0.53739,1.52224 -1.19082,2.08222 -6.58125,5.33106 -13.13837,10.77501 -20.55976,15.03087 -15.28625,9.09412 -33.2335,14.33576 -51.27361,13.77578 -19.06693,-0.448 -37.45689,-7.14539 -53.46658,-16.82188 -11.17879,-6.65259 -21.14372,-14.94047 -30.78221,-23.47461 3.8974,7.27978 4.90106,15.63456 4.97109,23.72071 -0.07,15.38831 -4.06063,30.46287 -9.38164,44.86562 3.96742,-3.11351 7.44483,-6.80917 10.66543,-10.63945 4.80758,-5.95821 9.47486,-12.90185 9.07812,-20.74161 24.27126,13.66358 51.9022,23.38479 80.35094,22.95919 16.91983,-0.22399 33.77088,-5.08448 47.79686,-14.20098 15.26292,-9.49732 28.96183,-21.32505 40.46736,-34.83183 18.71687,-21.88412 31.03875,-49.39025 31.48221,-77.92696 0.77013,-30.21665 -11.10859,-59.47028 -28.07518,-84.51269 -17.64335,-26.0952 -40.42072,-48.5838 -64.83201,-68.87754 -5.57774,-4.83826 -11.7394,-9.04975 -17.22382,-14 4.45752,2.12794 8.68209,4.70488 12.90625,7.25839 22.03078,13.70837 42.03163,30.50769 58.99822,49.7711 20.00045,22.71289 35.49596,49.32242 43.57088,78.12793 10.22188,35.95088 8.54179,74.54541 -2.38027,110.13789 2.14709,-2.7103 3.19729,-6.02583 4.66757,-9.09453 17.29328,-41.01311 19.95422,-87.84913 5.90488,-130.1166 -5.18097,-15.92591 -12.78994,-31.00083 -21.82167,-45.20196 l -0.81621,0.44707 c -0.0233,-0.58238 -0.0926,-1.7473 -0.13945,-2.32968 18.13341,21.36895 28.51771,47.86813 34.30545,74.61289 7.81816,37.00366 6.27794,75.35043 -0.67675,112.3541 -1.16682,5.01743 2.21687,9.38543 3.71054,13.95488 3.71069,10.4381 1.98475,21.68275 -0.25567,32.23281 5.64773,-1.52314 10.99216,-3.96503 16.33652,-6.29452 11.06208,-5.03989 21.91425,-10.61629 31.69276,-17.73926 2.70717,-1.74716 4.08384,-4.68164 5.74082,-7.23516 7.67813,-12.79001 14.21215,-26.16195 20.16327,-39.73594 12.71913,-29.36548 22.26387,-60.16567 26.46464,-91.7711 4.38754,-33.15095 2.42804,-67.80265 -10.89785,-99.00487 -10.96879,-26.09518 -30.15211,-48.71751 -53.81658,-65.22579 7.53809,8.62372 13.139,18.65748 17.05976,29.25235 7.70146,20.67454 10.10421,42.82863 9.94082,64.66796 -0.18668,15.25391 -1.51675,30.5073 -4.06055,45.58204 -1.72696,-17.51627 -6.04368,-34.76303 -11.87812,-51.42813 -10.38536,-29.45508 -25.999,-57.16329 -45.55607,-81.93691 -35.28669,-44.8434 -83.26857,-79.47334 -135.66186,-104.00059 -1.9604,-0.78396 -3.71128,-2.15007 -5.85839,-2.46367 z"
     inkscape:connector-curvature="0" />
</svg>
